<mxfile host="65bd71144e">
    <diagram id="rR0D7B3_uDACRkauf9F6" name="Page-1">
        <mxGraphModel dx="382" dy="1580" grid="1" gridSize="10" guides="1" tooltips="1" connect="1" arrows="1" fold="1" page="1" pageScale="1" pageWidth="850" pageHeight="1100" math="0" shadow="0">
            <root>
                <mxCell id="0"/>
                <mxCell id="1" parent="0"/>
                <mxCell id="2" value="" style="shape=process;whiteSpace=wrap;html=1;backgroundOutline=1;size=0.3333333333333333;" vertex="1" parent="1">
                    <mxGeometry x="60" y="-260" width="90" height="30" as="geometry"/>
                </mxCell>
                <mxCell id="3" value="" style="shape=process;whiteSpace=wrap;html=1;backgroundOutline=1;size=0.3333333333333333;" vertex="1" parent="1">
                    <mxGeometry x="270" y="-350" width="90" height="30" as="geometry"/>
                </mxCell>
                <mxCell id="5" value="" style="shape=process;whiteSpace=wrap;html=1;backgroundOutline=1;size=0.3333333333333333;" vertex="1" parent="1">
                    <mxGeometry x="280" y="-170" width="90" height="30" as="geometry"/>
                </mxCell>
                <mxCell id="6" value="" style="shape=process;whiteSpace=wrap;html=1;backgroundOutline=1;size=0.3333333333333333;" vertex="1" parent="1">
                    <mxGeometry x="200" y="-90" width="90" height="30" as="geometry"/>
                </mxCell>
                <mxCell id="7" value="" style="shape=process;whiteSpace=wrap;html=1;backgroundOutline=1;size=0.3333333333333333;" vertex="1" parent="1">
                    <mxGeometry x="60" y="-150" width="90" height="30" as="geometry"/>
                </mxCell>
                <mxCell id="8" value="" style="shape=process;whiteSpace=wrap;html=1;backgroundOutline=1;size=0.3333333333333333;" vertex="1" parent="1">
                    <mxGeometry x="200" y="-260" width="90" height="30" as="geometry"/>
                </mxCell>
                <object label="head" id="10">
                    <mxCell style="head;html=1;align=center;verticalAlign=middle;whiteSpace=wrap;rounded=0;" vertex="1" parent="1">
                        <mxGeometry x="40" y="-340" width="60" height="30" as="geometry"/>
                    </mxCell>
                </object>
                <object label="tail" id="11">
                    <mxCell style="head;html=1;align=center;verticalAlign=middle;whiteSpace=wrap;rounded=0;" vertex="1" parent="1">
                        <mxGeometry x="295" y="-50" width="60" height="30" as="geometry"/>
                    </mxCell>
                </object>
                <mxCell id="12" value="" style="curved=1;endArrow=classic;html=1;" edge="1" parent="1">
                    <mxGeometry width="50" height="50" relative="1" as="geometry">
                        <mxPoint x="60" y="-290" as="sourcePoint"/>
                        <mxPoint x="70" y="-270" as="targetPoint"/>
                        <Array as="points">
                            <mxPoint x="60" y="-290"/>
                            <mxPoint x="50" y="-310"/>
                        </Array>
                    </mxGeometry>
                </mxCell>
                <mxCell id="13" value="" style="curved=1;endArrow=classic;html=1;" edge="1" parent="1" source="2">
                    <mxGeometry width="50" height="50" relative="1" as="geometry">
                        <mxPoint x="170" y="-130" as="sourcePoint"/>
                        <mxPoint x="190" y="-240" as="targetPoint"/>
                        <Array as="points">
                            <mxPoint x="170" y="-250"/>
                            <mxPoint x="180" y="-240"/>
                        </Array>
                    </mxGeometry>
                </mxCell>
                <mxCell id="14" value="" style="curved=1;endArrow=classic;html=1;exitX=1;exitY=0.5;exitDx=0;exitDy=0;" edge="1" parent="1" source="8">
                    <mxGeometry width="50" height="50" relative="1" as="geometry">
                        <mxPoint x="170" y="-130" as="sourcePoint"/>
                        <mxPoint x="260" y="-330" as="targetPoint"/>
                        <Array as="points">
                            <mxPoint x="330" y="-240"/>
                            <mxPoint x="220" y="-330"/>
                        </Array>
                    </mxGeometry>
                </mxCell>
                <mxCell id="15" value="" style="curved=1;endArrow=classic;html=1;exitX=1;exitY=0.5;exitDx=0;exitDy=0;" edge="1" parent="1" source="3">
                    <mxGeometry width="50" height="50" relative="1" as="geometry">
                        <mxPoint x="170" y="-130" as="sourcePoint"/>
                        <mxPoint x="270" y="-150" as="targetPoint"/>
                        <Array as="points">
                            <mxPoint x="410" y="-330"/>
                            <mxPoint x="240" y="-160"/>
                        </Array>
                    </mxGeometry>
                </mxCell>
                <mxCell id="16" value="" style="curved=1;endArrow=classic;html=1;exitX=1;exitY=0.5;exitDx=0;exitDy=0;" edge="1" parent="1" source="5">
                    <mxGeometry width="50" height="50" relative="1" as="geometry">
                        <mxPoint x="190" y="-130" as="sourcePoint"/>
                        <mxPoint x="50" y="-130" as="targetPoint"/>
                        <Array as="points">
                            <mxPoint x="420" y="-100"/>
                            <mxPoint x="20" y="-190"/>
                        </Array>
                    </mxGeometry>
                </mxCell>
                <mxCell id="17" value="" style="curved=1;endArrow=classic;html=1;exitX=1;exitY=0.5;exitDx=0;exitDy=0;" edge="1" parent="1" source="7">
                    <mxGeometry width="50" height="50" relative="1" as="geometry">
                        <mxPoint x="190" y="-130" as="sourcePoint"/>
                        <mxPoint x="190" y="-70" as="targetPoint"/>
                        <Array as="points">
                            <mxPoint x="180" y="-110"/>
                            <mxPoint x="130" y="-70"/>
                        </Array>
                    </mxGeometry>
                </mxCell>
                <mxCell id="19" value="" style="endArrow=classic;html=1;" edge="1" parent="1">
                    <mxGeometry width="50" height="50" relative="1" as="geometry">
                        <mxPoint x="330" y="-60" as="sourcePoint"/>
                        <mxPoint x="300" y="-70" as="targetPoint"/>
                    </mxGeometry>
                </mxCell>
            </root>
        </mxGraphModel>
    </diagram>
</mxfile>